<?xml version="1.0" encoding="UTF-8" standalone="no"?>
<svg width="40px" height="40px" viewBox="0 0 40 40" version="1.1" xmlns="http://www.w3.org/2000/svg" xmlns:xlink="http://www.w3.org/1999/xlink" xmlns:sketch="http://www.bohemiancoding.com/sketch/ns">
    <!-- Generator: Sketch 3.3.3 (12072) - http://www.bohemiancoding.com/sketch -->
    <title>Oval 1 + Fill 205</title>
    <desc>Created with Sketch.</desc>
    <defs></defs>
    <g id="Introduction" stroke="none" stroke-width="1" fill="none" fill-rule="evenodd" sketch:type="MSPage">
        <g id="Models-Copy" sketch:type="MSArtboardGroup" transform="translate(-355.000000, -583.000000)">
            <g id="Oval-1-+-Fill-205" sketch:type="MSLayerGroup" transform="translate(355.000000, 583.000000)">
                <circle id="Oval-1" fill="#424242" sketch:type="MSShapeGroup" cx="20" cy="20" r="20"></circle>
                <path d="M12.3818889,29.2455193 L27.5793057,29.2455193 C28.5252555,29.2455193 29.1411247,28.9607852 29.4490593,28.4166268 C29.756994,27.8482133 29.6620826,27.1859429 29.1643253,26.4045061 L22.5131486,15.9189108 L22.5131486,10.6639855 L23.3652416,10.6639855 C23.5782649,10.6639855 23.7680876,10.5690742 23.9336552,10.4035066 C24.0992227,10.237939 24.1941341,10.0481163 24.1941341,9.81189248 C24.1941341,9.59886922 24.0992227,9.40904652 23.9336552,9.24347894 C23.7680876,9.07791135 23.5782649,8.983 23.3420411,8.983 L16.6191536,8.983 C16.3829298,8.983 16.193107,9.07791135 16.0275395,9.24347894 C15.8619719,9.40904652 15.7670605,9.59886922 15.7670605,9.81189248 C15.7670605,10.0481163 15.8619719,10.237939 16.0275395,10.4035066 C16.193107,10.5690742 16.3829298,10.6639855 16.6191536,10.6639855 L17.448046,10.6639855 L17.448046,15.9189108 L10.7968693,26.4045061 C10.299112,27.1859429 10.2042007,27.8482133 10.5121353,28.4166268 C10.8200699,28.9607852 11.4359391,29.2455193 12.3818889,29.2455193 L12.3818889,29.2455193 Z M18.8685526,16.8184595 L19.127977,16.4156135 L19.127977,10.6639855 L20.8332176,10.6639855 L20.8332176,16.4156135 L21.092642,16.8184595 L24.6908368,22.4751761 L15.2703578,22.4751761 L18.8685526,16.8184595 L18.8685526,16.8184595 Z" id="Fill-205" fill="#FFFFFF" sketch:type="MSShapeGroup"></path>
            </g>
        </g>
    </g>
</svg>