<?xml version="1.0" encoding="UTF-8" standalone="no"?>
<svg width="30px" height="30px" viewBox="0 0 30 30" version="1.1" xmlns="http://www.w3.org/2000/svg" xmlns:xlink="http://www.w3.org/1999/xlink" xmlns:sketch="http://www.bohemiancoding.com/sketch/ns">
    <!-- Generator: Sketch 3.3.2 (12043) - http://www.bohemiancoding.com/sketch -->
    <title>logo</title>
    <desc>Created with Sketch.</desc>
    <defs></defs>
    <g id="Introduction" stroke="none" stroke-width="1" fill="none" fill-rule="evenodd" sketch:type="MSPage">
        <g id="Artboard-2" sketch:type="MSArtboardGroup" transform="translate(-588.000000, -647.000000)" fill="#F44336">
            <g id="logo" sketch:type="MSLayerGroup" transform="translate(603.000000, 662.000000) rotate(66.000000) translate(-603.000000, -662.000000) translate(588.000000, 647.000000)">
                <path d="M23.8732158,16.3043478 C23.2416102,20.6387052 19.5095332,23.9673913 15,23.9673913 C10.0474465,23.9673913 6.0326087,19.9525535 6.0326087,15 C6.0326087,10.0474465 10.0474465,6.0326087 15,6.0326087 C19.5095332,6.0326087 23.2416102,9.36129484 23.8732158,13.6956522 L22.2213614,13.6956522 C21.6059587,10.2658168 18.6069345,7.66304348 15,7.66304348 C10.9479108,7.66304348 7.66304348,10.9479108 7.66304348,15 C7.66304348,19.0520892 10.9479108,22.3369565 15,22.3369565 C18.6069345,22.3369565 21.6059587,19.7341832 22.2213614,16.3043478 L23.8732158,16.3043478 Z" id="Oval-216" sketch:type="MSShapeGroup" transform="translate(14.952912, 15.000000) rotate(-126.000000) translate(-14.952912, -15.000000) "></path>
                <path d="M16.548913,3.42391304 C22.2098496,4.18088481 26.576087,9.02918411 26.576087,14.8972728 C26.576087,21.2905691 21.3932963,26.4733597 15,26.4733597 C8.60670371,26.4733597 3.42391304,21.2905691 3.42391304,14.8972728 C3.42391304,9.02918411 7.7901504,4.18088481 13.451087,3.42391304 L13.451087,4.74739594 C8.69390067,5.50350025 5.05434783,9.68686549 5.05434783,14.7342293 C5.05434783,20.3171078 9.50716798,24.842925 15,24.842925 C20.492832,24.842925 24.9456522,20.3171078 24.9456522,14.7342293 C24.9456522,9.68686549 21.3060993,5.50350025 16.548913,4.74739594 L16.548913,3.42391304 Z" id="Oval-215" sketch:type="MSShapeGroup" transform="translate(15.000000, 14.948636) rotate(-69.000000) translate(-15.000000, -14.948636) "></path>
                <path d="M0.844948818,13.5326087 C1.57922523,6.38804202 7.61618718,0.815217391 14.9547521,0.815217391 C22.7887912,0.815217391 29.1395347,7.16596089 29.1395347,15 C29.1395347,22.8340391 22.7887912,29.1847826 14.9547521,29.1847826 C7.50490653,29.1847826 1.39643777,23.441666 0.815217391,16.1413043 L2.12616147,16.1413043 C2.71026984,22.5400272 8.15780562,27.5543478 14.7917086,27.5543478 C21.8153298,27.5543478 27.5090999,21.9335748 27.5090999,15 C27.5090999,8.06642515 21.8153298,2.44565217 14.7917086,2.44565217 C8.2709198,2.44565217 2.8963858,7.29043304 2.16026389,13.5326087 L0.844948818,13.5326087 Z" id="Oval-218" sketch:type="MSShapeGroup"></path>
            </g>
        </g>
    </g>
</svg>